<svg width="150" height="31" viewBox="0 0 150 31" fill="none" xmlns="http://www.w3.org/2000/svg">
<path d="M10.0676 16.326C10.5809 16.326 10.9969 15.9096 10.9969 15.396C10.9969 14.8824 10.5809 14.4661 10.0676 14.4661C9.55437 14.4661 9.13831 14.8824 9.13831 15.396C9.13831 15.9096 9.55437 16.326 10.0676 16.326Z" fill="#045EA8"/>
<path fill-rule="evenodd" clip-rule="evenodd" d="M8.00239 15.3959C8.00239 14.8276 8.26053 14.311 8.62193 13.8977C7.95076 12.7611 7.02145 11.9344 5.52423 11.8311H2.63304H0.464655C0.30977 12.2961 0.30977 12.4511 0.206513 13.0194C0.0516283 13.7944 0 14.5693 0 15.3959C0 16.2226 0.0516283 16.9975 0.206513 17.8242C0.30977 18.3925 0.361398 18.5475 0.464655 19.0124H2.63304H5.57586C7.02145 18.9091 7.95076 18.0308 8.67356 16.9459C8.26053 16.5326 8.00239 15.9643 8.00239 15.3959ZM30.7705 15.3959C30.7705 12.6061 29.9444 9.86787 28.6537 7.59465C21.8904 5.01143 13.4234 7.54298 11.7196 14.0527C12.0294 14.4143 12.1843 14.8793 12.1843 15.3959C12.1843 15.9126 11.9778 16.3776 11.7196 16.7392C13.4234 23.3006 21.942 25.8321 28.6537 23.1973C29.9961 20.924 30.7705 18.1858 30.7705 15.3959ZM15.3852 30.7919C9.03496 30.7919 3.04607 26.7104 0.980938 20.6657H2.63304H5.98889C8.20891 20.6657 9.2931 19.2191 10.0675 17.5142H10.1192H10.1708C10.2224 17.8242 10.3773 18.1858 10.5322 18.4958C13.8364 25.7288 21.529 26.5038 27.4146 25.1088C24.0588 28.9836 20.6513 30.5852 15.3852 30.7919ZM15.3852 0C20.6513 0.258321 24.0588 1.85991 27.363 5.73473C21.4774 4.28813 13.7848 5.11476 10.4806 12.3478C10.3773 12.6061 10.1708 13.0194 10.1192 13.3294H10.0675H10.0159C9.24147 11.5728 8.15728 10.1779 5.93726 10.1779H2.63304H0.980938C3.04607 4.08148 9.03496 0 15.3852 0Z" fill="#0A2135"/>
<path fill-rule="evenodd" clip-rule="evenodd" d="M45.6501 24.2311C49.0997 24.2311 51.9221 22.2698 53.4117 19.367L50.4325 17.7979C49.5701 19.6023 47.9237 21.0145 45.5717 21.0145C42.4357 21.0145 40.0837 18.504 40.0837 15.4443C40.0837 12.3061 42.4357 9.87401 45.6501 9.87401C47.8453 9.87401 49.3349 10.9724 50.2757 12.7768L53.1765 10.9724C51.6869 8.38338 48.8645 6.73584 45.6501 6.73584C40.7109 6.73584 36.791 10.4232 36.791 15.6012C36.8694 20.3084 40.3189 24.2311 45.6501 24.2311ZM54.7445 23.9958H57.9589V6.81429H54.7445V23.9958ZM65.5636 24.2311C68.9348 24.2311 71.6788 21.4852 71.6788 18.1117C71.6788 14.7382 68.9348 11.9923 65.5636 11.9923C62.1924 11.9923 59.4485 14.7382 59.4485 18.1117C59.4485 21.4852 62.1924 24.2311 65.5636 24.2311ZM65.5636 21.1714C63.9172 21.1714 62.5844 19.7592 62.5844 18.1117C62.5844 16.4642 63.8388 15.052 65.5636 15.052C67.21 15.052 68.5428 16.4642 68.5428 18.1117C68.5428 19.8377 67.21 21.1714 65.5636 21.1714ZM77.6372 24.2311C78.97 24.2311 80.146 23.6035 80.8516 22.662V23.9958H84.066V12.2276H80.8516V18.6609C80.8516 20.6222 79.8324 21.4852 78.578 21.4852C77.1668 21.4852 76.3828 20.5438 76.3828 18.9747V12.2276H73.09V19.4454C73.1684 22.5051 74.8932 24.2311 77.6372 24.2311ZM91.2787 24.2311C92.8467 24.2311 94.0227 23.6035 94.8067 22.662V23.9958H98.0211V6.81429H94.8067V13.4044C94.0227 12.5415 92.8467 11.9923 91.2787 11.9923C88.6131 11.9923 85.5555 13.9536 85.5555 18.1117C85.6339 22.2698 88.7699 24.2311 91.2787 24.2311ZM91.9059 21.3283C90.1027 21.3283 88.7699 19.9946 88.7699 18.1117C88.7699 16.3073 90.1027 14.9735 91.9059 14.9735C93.6307 14.9735 94.8851 16.3857 94.8851 18.1117C94.9635 19.8377 93.6307 21.3283 91.9059 21.3283ZM100.059 23.9958H110.251V20.8576H103.352V16.9349H110.251V13.7967H103.352V9.95246H110.251V6.81429H100.059V23.9958ZM111.271 23.9958H115.191L117.621 20.5438L120.13 23.9958H124.05L119.659 18.0332L123.736 12.2276H119.973L117.699 15.5227L115.426 12.2276H111.506L115.661 18.0332L111.271 23.9958ZM124.677 15.1304H126.715V18.8962C126.715 22.7405 127.97 23.9958 131.655 23.9958H132.125V21.0145C130.165 21.0145 129.93 20.7007 129.93 18.8962V15.1304H132.125V12.2276H129.93V7.67729L126.715 9.48174V12.2276H124.677V15.1304ZM139.259 24.2311C141.847 24.2311 143.728 22.8974 144.747 21.093L142.16 19.5239C141.611 20.6222 140.592 21.3283 139.259 21.3283C137.535 21.3283 136.515 20.4653 136.123 19.2101H145.218V18.0332C145.218 14.6597 142.709 11.9138 139.181 11.9138C135.81 11.9138 133.066 14.6597 133.066 18.0332C133.066 21.4068 135.575 24.2311 139.259 24.2311ZM139.181 14.8166C140.514 14.8166 141.533 15.4443 142.003 16.6995H136.28C136.829 15.6012 137.848 14.8166 139.181 14.8166ZM146.786 23.9958H150V6.81429H146.786V23.9958Z" fill="#045EA8"/>
</svg>
